<?xml version="1.0" encoding="UTF-8" standalone="no"?>
<!-- Created with Inkscape (http://www.inkscape.org/) -->
<svg
   xmlns:dc="http://purl.org/dc/elements/1.1/"
   xmlns:cc="http://web.resource.org/cc/"
   xmlns:rdf="http://www.w3.org/1999/02/22-rdf-syntax-ns#"
   xmlns:svg="http://www.w3.org/2000/svg"
   xmlns="http://www.w3.org/2000/svg"
   xmlns:sodipodi="http://sodipodi.sourceforge.net/DTD/sodipodi-0.dtd"
   xmlns:inkscape="http://www.inkscape.org/namespaces/inkscape"
   version="1.0"
   width="592"
   height="336"
   id="svg2"
   sodipodi:version="0.32"
   inkscape:version="0.45"
   sodipodi:docname="Square_knot.svg"
   sodipodi:docbase="/home/ben/Desktop"
   inkscape:output_extension="org.inkscape.output.svg.inkscape"
   sodipodi:modified="true">
  <metadata
     id="metadata10">
    <rdf:RDF>
      <cc:Work
         rdf:about="">
        <dc:format>image/svg+xml</dc:format>
        <dc:type
           rdf:resource="http://purl.org/dc/dcmitype/StillImage" />
      </cc:Work>
    </rdf:RDF>
  </metadata>
  <sodipodi:namedview
     inkscape:cy="416.69782"
     inkscape:cx="305.25953"
     inkscape:zoom="0.43415836"
     inkscape:window-height="622"
     inkscape:window-width="796"
     inkscape:pageshadow="2"
     inkscape:pageopacity="0.0"
     guidetolerance="10.0"
     gridtolerance="10.0"
     objecttolerance="10.0"
     borderopacity="1.0"
     bordercolor="#666666"
     pagecolor="#ffffff"
     id="base"
     inkscape:window-x="396"
     inkscape:window-y="199"
     inkscape:current-layer="svg2" />
  <defs
     id="defs4" />
  <path
     id="b23"
     style="fill:none;stroke:#327ecd;stroke-width:32;stroke-linecap:round;stroke-linejoin:round;stroke-opacity:1"
     d="M 240,304 C 208,304 176,272 176,240 L 176,96 C 176,64 208,32 240,32" />
  <path
     id="r14"
     style="fill:none;stroke:#dd3232;stroke-width:32;stroke-linecap:round;stroke-linejoin:round;stroke-opacity:1"
     d="M 0,224 L 224,224 C 272,224 288,304 352,304 M 352,32 C 288,32 272,112 224,112 L 96,112" />
  <path
     id="b14"
     style="fill:none;stroke:#327ecd;stroke-width:32;stroke-linecap:round;stroke-linejoin:round;stroke-opacity:1"
     d="M 592,224 L 368,224 C 320,224 304,304 240,304 M 240,32 C 304,32 320,112 368,112 L 496,112" />
  <path
     id="r23"
     style="fill:none;stroke:#dd3232;stroke-width:32;stroke-linecap:round;stroke-linejoin:round;stroke-opacity:1"
     d="M 352,304 C 384,304 416,272 416,240 L 416,96 C 416,64 384,32 352,32" />
</svg>